<?xml version="1.0" encoding="UTF-8"?>
<svg id="Layer_1" xmlns="http://www.w3.org/2000/svg" version="1.1" viewBox="0 0 324 81.8">
  <!-- Generator: Adobe Illustrator 29.3.1, SVG Export Plug-In . SVG Version: 2.1.0 Build 151)  -->
  <defs>
    <style>
      .st0 {
        fill: #eb2127;
      }

      .st1 {
        fill: #1c2b53;
      }
    </style>
  </defs>
  <path class="st0" d="M249.7,13.8c-14.7.5-26.6,12.4-27.1,27.1-.2,5.8,1.4,11.2,4.2,15.8-.5-1.9-.7-3.9-.7-6,0-13.7,11.1-24.8,24.8-24.8s1.3,0,1.9,0c1.8,0,3.6.4,5.2,1s3.2,1.5,4.5,2.5c1.6,1.2,3.8,1.5,5.6.6h.1c3.5-1.6,4.3-6.3,1.4-8.9-5.2-4.8-12.2-7.6-19.9-7.3h0Z"/>
  <path class="st1" d="M250.9,58.6c-8.1-.7-14.5-7.4-14.9-15.5-.4-8.5,5.7-15.7,13.8-17h-.2c-14,2.2-23.6,15.5-21.3,29.5h0c.5,3.1,2,5.8,4.4,7.8,4.9,4.1,11.1,6.5,18,6.5s11.3-1.8,15.8-4.9c2.7-1.8,3-5.7.7-8h0c-1.7-1.7-4.4-2-6.4-.8-2.8,1.7-6.2,2.5-9.9,2.2h0v.2Z"/>
  <path class="st1" d="M21,57.7c-2.2,0-4.2-.4-6.1-1.1-1.9-.7-3.5-1.7-4.9-3s-2.4-2.9-3.2-4.6-1.2-3.7-1.2-5.8.4-4.1,1.2-5.8,1.8-3.3,3.2-4.6,3-2.3,4.9-3,3.9-1.1,6.1-1.1,4.7.4,6.7,1.3,3.6,2.3,3.6,2.3c.8.8.8,2,0,2.7l-1.3,1.2c-.8.7-2.1.7-2.9,0,0,0-.6-.5-1.8-1.1s-2.5-.8-3.9-.8-2.5.2-3.6.7c-1.1.4-2.1,1.1-2.9,1.9-.8.8-1.4,1.8-1.9,2.9-.4,1.1-.7,2.3-.7,3.7s.2,2.6.7,3.7c.4,1.1,1.1,2.1,1.9,2.9.8.8,1.8,1.4,2.9,1.9,1.1.4,2.3.7,3.6.7s2.7-.3,3.9-.9c1.2-.6,1.8-1.1,1.8-1.1.8-.8,2.1-.8,2.9,0l1.3,1.2c.8.7.8,2,0,2.7,0,0-1.6,1.5-3.6,2.4s-4.2,1.3-6.7,1.3h0v-.6Z"/>
  <path class="st1" d="M35,57.2c-1.1,0-1.6-.8-1.2-1.8l10.9-24.6c.5-1,1.7-1.8,2.8-1.8h2.5c1.1,0,2.4.8,2.8,1.8l11,24.6c.5,1,0,1.8-1.2,1.8h-2.9c-1.1,0-2.3-.8-2.8-1.8l-8.8-21.2c-.4-1-.2-1.8.5-1.8s1,.8.5,1.8l-8.8,21.2c-.4,1-1.7,1.8-2.8,1.8h-2.7.2ZM41.3,51.1c-1.1,0-1.7-.8-1.4-1.9l.4-1.2c.3-1,1.5-1.9,2.6-1.9h10.6c1.1,0,2.3.8,2.7,1.9l.4,1.2c.4,1-.2,1.9-1.3,1.9h-14Z"/>
  <path class="st1" d="M74.2,57.2c-1.1,0-2-.9-2-2v-18.9c0-1.1-.9-2-2-2h-5c-1.1,0-2-.9-2-2v-1.3c0-1.1.9-2,2-2h20.6c1.1,0,2,.9,2,2v1.3c0,1.1-.9,2-2,2h-5c-1.1,0-2,.9-2,2v18.9c0,1.1-.9,2-2,2h-2.6Z"/>
  <path class="st1" d="M88.3,57.2c-1.1,0-1.6-.8-1.2-1.8l10.9-24.6c.4-1,1.7-1.8,2.8-1.8h2.5c1.1,0,2.4.8,2.8,1.8l11,24.6c.4,1,0,1.8-1.2,1.8h-2.9c-1.1,0-2.3-.8-2.8-1.8l-8.8-21.2c-.4-1-.2-1.8.5-1.8s1,.8.5,1.8l-8.8,21.2c-.4,1-1.7,1.8-2.8,1.8h-2.7.2ZM94.7,51.1c-1.1,0-1.7-.8-1.4-1.9l.4-1.2c.3-1,1.5-1.9,2.6-1.9h10.6c1.1,0,2.3.8,2.7,1.9l.4,1.2c.4,1-.2,1.9-1.3,1.9,0,0-14,0-14,0Z"/>
  <path class="st1" d="M123.1,57.2c-1.1,0-2-.9-2-2v-24.2c0-1.1.9-2,2-2h2.6c1.1,0,2,.9,2,2v18.9c0,1.1.9,2,2,2h10.1c1.1,0,2,.9,2,2v1.3c0,1.1-.9,2-2,2h-16.7Z"/>
  <path class="st1" d="M151.8,57.2c-1.1,0-2-.9-2-2v-7.5c0-1.1.3-1.2.7,0v.2c.5,1,.3,1.1-.2.2l-10.4-17.2c-.6-.9-.1-1.7,1-1.7h3c1.1,0,2.5.8,3,1.7l7.5,12.4c.6.9.1,1.7-1,1.7s-1.5-.8-1-1.7l7.5-12.4c.6-.9,1.9-1.7,3-1.7h2.4c1.1,0,1.5.8,1,1.7l-10.3,17.2c-.6.9-.7.9-.3-.2v-.2c.5-1,.8-1,.8,0v7.5c0,1.1-.9,2-2,2h-2.7Z"/>
  <path class="st1" d="M178.9,57.7c-2.3,0-4.4-.3-6.5-.9-2.1-.6-3.3-1.3-3.3-1.3-.9-.6-1.4-1.8-.9-2.8l.6-1.3c.4-1,1.6-1.4,2.5-.8,0,0,.9.5,2.6,1.1s3.4.8,5,.8,2.3,0,3.1-.4c.8-.3,1.4-.6,1.8-1.1.4-.4.6-1,.6-1.5s-.3-1.3-.9-1.8c-.6-.4-1.4-.8-2.4-1.1s-2.1-.5-3.2-.8c-1.2-.3-2.3-.6-3.5-.9s-2.2-.8-3.2-1.5c-1-.6-1.8-1.4-2.3-2.4s-.9-2.2-.9-3.7.4-3.1,1.3-4.4c.9-1.3,2.2-2.4,3.9-3.2,1.8-.8,4-1.2,6.6-1.2s3.5.2,5.3.6c1.7.4,2.8,1,2.8,1,1,.5,1.4,1.7,1,2.8l-.5,1.2c-.4,1-1.6,1.5-2.6,1,0,0-.8-.4-2.1-.8-1.4-.4-2.6-.5-3.9-.5s-2.3,0-3.1.4-1.4.7-1.7,1.2c-.4.5-.5,1-.5,1.6s.3,1.4.9,1.8,1.4.8,2.3,1.1,2,.5,3.2.8,2.4.6,3.5,1c1.2.4,2.2.8,3.2,1.4s1.8,1.4,2.4,2.3.9,2.2.9,3.7-.4,3-1.3,4.4-2.2,2.4-4,3.2-4,1.2-6.7,1.2h0v-.2Z"/>
  <path class="st1" d="M202.9,57.2c-1.1,0-2-.9-2-2v-18.9c0-1.1-.9-2-2-2h-5c-1.1,0-2-.9-2-2v-1.3c0-1.1.9-2,2-2h20.6c1.1,0,2,.9,2,2v1.3c0,1.1-.9,2-2,2h-5c-1.1,0-2,.9-2,2v18.9c0,1.1-.9,2-2,2h-2.6Z"/>
  <path class="st1" d="M282,55c-1.8,0-3.3-.3-4.7-1s-2.4-1.7-3.2-3c-.8-1.4-1-3.2-1-3.2-.1-1.1-.2-2.9-.2-4v-7.9c0-1.1.9-2,2-2h.9c1.1,0,2,.9,2,2v7.3c0,1.1.1,2.9.3,4,0,0,.2,1.2,1,2.2.9.9,2,1.4,3.6,1.4s2.1-.2,3-.7,1.5-1.2,2-2.1.5-1.5.5-1.5c.1-1.1.2-2.9.2-4v-6.5c0-1.1.9-2,2-2h.9c1.1,0,2,.9,2,2v16.8c0,1.1-.9,2-2,2h-.6c-1.1,0-2-.9-2-2v-1.7c0-1.1.2-1.6.4-1.1s-.1,1.6-.8,2.5c0,0-.5.7-1.9,1.5s-2.8,1.1-4.4,1.1h0Z"/>
  <path class="st1" d="M309.7,55c-2.3,0-4.3-.5-6.1-1.4-1.7-.9-3.1-2.2-4-3.8s-1.4-3.4-1.4-5.5.5-3.9,1.4-5.5,2.2-2.9,3.8-3.8,3.5-1.4,5.6-1.4,3.8.5,5.4,1.3c1.6.9,2.8,2.2,3.7,3.8.9,1.6,1.4,3.5,1.4,5.7s0,.4,0,.7v.3c0,.2-1,.5-2.1.5h-13.4c-1.1,0-2-.7-2-1.6s.9-1.6,2-1.6h10.8c1.1,0,1.6.2,1,.5s-1.1-.4-1.2-1.5c0,0,0-.2-.5-1.2-.5-.9-1.2-1.6-2.1-2.1s-1.9-.8-3.1-.8-2.2.2-3.1.8-1.6,1.2-2.1,2.2c-.5.9-.5,1.2-.5,1.2-.1,1.1-.2,2.2-.2,2.4s.1,1.3.2,2.4c0,0,0,.4.6,1.3.6,1,1.4,1.7,2.4,2.2s2.2.8,3.6.8,2.2-.2,3.2-.6,1-.4,1-.4c.8-.7,2.1-.6,2.8.2h0c.7.9.6,2.1-.2,2.9,0,0-.7.6-2.1,1.2-1.4.6-3,.9-4.9.9h.1Z"/>
</svg>