<?xml version="1.0" encoding="UTF-8"?><svg id="Layer_1" xmlns="http://www.w3.org/2000/svg" viewBox="0 0 277.8 141.34"><defs><style>.cls-1{fill:#000;}.cls-1,.cls-2,.cls-3,.cls-4{stroke-width:0px;}.cls-2{fill:#231f20;}.cls-3{fill:none;}.cls-4{fill:#ed1c24;}</style></defs><path class="cls-3" d="M152.45,67.41c-3.27.86-5.73,2.07-7.4,3.64-1.66,1.57-2.49,3.46-2.49,5.67,0,2.51.89,4.51,2.68,6,1.79,1.49,4.21,2.24,7.29,2.24,4.67,0,8.4-1.21,11.18-3.62,2.78-2.41,4.17-5.7,4.17-9.87v-6.11c-1.35.5-3.09.9-5.2,1.2-2.11.31-5.52.59-10.22.84Z"/><rect class="cls-2" x="29.06" y="43.02" width="5.09" height="46.39"/><path class="cls-2" d="M82.39,52.97c-.28-1.46-.74-2.7-1.37-3.72-1.22-2-2.98-3.54-5.28-4.62-.8-.38-1.65-.66-2.54-.91-1.67-.46-3.48-.72-5.48-.72-1.86,0-3.57.26-5.16.72-1.17.34-2.28.77-3.31,1.35-2.44,1.38-4.48,3.43-6.15,6.15v-8.21h-4.97v46.39h5.22v-27.14c0-4.51,1.2-8.08,3.59-10.69,2.39-2.62,5.65-3.93,9.78-3.93s6.82.92,8.41,2.76c1.59,1.84,2.39,5.35,2.39,10.52v28.47h5.28v-29.25c0-3.33-.14-5.72-.41-7.18Z"/><rect class="cls-4" x="29.06" y="27.27" width="5.09" height="11.62"/><path class="cls-2" d="M177.3,84.53c-.28.02-.61.02-1,.02-1.22,0-2.05-.22-2.49-.66-.45-.44-.66-1.58-.66-3.4v-24.1c0-4.38-1.37-7.7-4.11-9.97-1.49-1.24-3.38-2.13-5.63-2.69-1.88-.47-4-.72-6.4-.72-2.27,0-4.33.25-6.2.72-2.51.63-4.67,1.66-6.46,3.13-3.12,2.56-4.74,6.05-4.85,10.46l5.03.04c.16-3.25,1.3-5.7,3.4-7.35,2.1-1.65,5.13-2.48,9.08-2.48s6.7.74,8.39,2.23c1.7,1.49,2.55,3.95,2.55,7.4,0,2.77-2.1,4.59-6.3,5.46-.61.11-1.09.21-1.45.29-.61.05-1.51.12-2.7.21-6.14.47-10.52,1.3-13.14,2.49-2.31,1.08-4.06,2.56-5.27,4.43-1.21,1.88-1.81,4.08-1.81,6.59,0,3.87,1.32,6.96,3.96,9.29,2.64,2.32,6.19,3.48,10.65,3.48,3.13,0,6.05-.62,8.76-1.86,2.71-1.24,5.23-3.11,7.55-5.62v.71c0,2.01.53,3.53,1.58,4.55,1.05,1.02,2.63,1.53,4.74,1.53.53,0,1.11-.04,1.75-.11.64-.07,1.27-.18,1.91-.33v-3.77c-.3.03-.6.05-.87.06ZM167.87,71.28c0,4.16-1.39,7.44-4.17,9.85-2.78,2.41-6.51,3.61-11.18,3.61-3.07,0-5.5-.74-7.29-2.23-1.78-1.49-2.68-3.49-2.68-5.99,0-2.21.83-4.09,2.49-5.67,1.66-1.57,4.13-2.78,7.4-3.64,4.7-.25,8.11-.53,10.22-.83,2.12-.3,3.85-.7,5.2-1.2v6.1Z"/><path class="cls-2" d="M205.75,43.03c-1.85,0-3.52.26-5.04.72-1.19.36-2.3.84-3.29,1.48-2.26,1.46-4.02,3.68-5.29,6.64v-8.86h-4.95v46.39h5.28v-25.43c0-5.18,1.1-9.07,3.3-11.68,2.2-2.61,5.5-3.91,9.9-3.91h.66v-5.35h-.58Z"/><path class="cls-1" d="M250.6,49.25c-2.32-2.75-5.22-4.57-8.68-5.49-1.74-.46-3.62-.72-5.65-.72s-3.81.26-5.48.72c-1.32.37-2.55.85-3.66,1.5-2.52,1.48-4.61,3.76-6.27,6.83v-9.07h-5.22v46.39h5.22v-8.85c1.72,2.96,3.82,5.17,6.31,6.64,2.49,1.47,5.44,2.2,8.85,2.2,6.15,0,10.99-2.06,14.52-6.19,3.53-4.12,5.3-9.81,5.3-17.04s-1.74-12.78-5.23-16.92ZM246.6,80.01c-2.59,3.24-6.3,4.86-11.12,4.86s-8.3-1.66-10.93-4.97c-2.63-3.31-3.95-7.89-3.95-13.74s1.29-10.51,3.87-13.75c2.58-3.24,6.25-4.86,11.02-4.86s8.49,1.63,11.1,4.88c2.6,3.26,3.91,7.74,3.91,13.73s-1.3,10.6-3.89,13.85Z"/><rect class="cls-4" x="215.63" y="89.4" width="5.22" height="15.74"/><path class="cls-4" d="M44.43,98.13c-6.34-5.56,4.65-28.47,24.56-51.17,11.74-13.39,23.96-23.72,33.31-28.79-10.41,3.55-24.83,14.23-38.25,29.18-20.3,22.61-30.63,46.43-23.08,53.21,7.55,6.78,30.12-6.06,50.42-28.66,14.14-15.76,23.44-32.1,25.22-42.85-3.53,10.04-12.4,24.08-24.65,38.06-19.9,22.7-41.18,36.6-47.52,31.04ZM116.5,15.92c-2.6-2.28-7.72-1.28-14.22,2.24,5.33-1.82,9.61-1.78,12.17.52,2.29,2.05,2.92,5.68,2.15,10.35,2.21-6.27,2.34-10.98-.1-13.11Z"/><rect class="cls-4" x="96.14" y="27.27" width="5.09" height="15.74"/><polygon class="cls-2" points="96.14 89.4 101.23 89.4 101.23 71.9 109.59 63.88 126.63 89.4 132.5 89.4 113.17 60.48 131.12 43.02 124.59 43.02 101.23 65.75 101.23 43.02 96.14 43.02 96.14 89.4"/><polygon class="cls-2" points="77.53 71.33 77.53 89.4 82.81 89.4 82.81 70.39 77.53 71.33"/><path class="cls-1" d="M36.73,112.9l-2.99,5.76v3.28h-1.48v-3.28l-3-5.76h1.65l2.09,4.43,2.09-4.43h1.64Z"/><path class="cls-1" d="M39.63,121.59c-.55-.31-.98-.74-1.29-1.3s-.47-1.21-.47-1.94.16-1.37.48-1.94c.32-.56.76-1,1.31-1.3.55-.3,1.17-.46,1.86-.46s1.3.15,1.86.46c.55.3.99.74,1.31,1.3.32.56.48,1.21.48,1.94s-.16,1.37-.49,1.94c-.33.56-.78,1-1.35,1.31-.57.31-1.19.46-1.88.46s-1.29-.15-1.83-.46ZM42.53,120.49c.33-.18.6-.46.81-.82.21-.36.31-.81.31-1.33s-.1-.96-.3-1.32-.46-.63-.79-.81c-.33-.18-.68-.27-1.07-.27s-.73.09-1.06.27c-.33.18-.58.45-.77.81-.19.36-.29.8-.29,1.32,0,.77.2,1.37.59,1.79.39.42.89.63,1.49.63.38,0,.74-.09,1.07-.27Z"/><path class="cls-1" d="M53.59,114.78v7.16h-1.48v-.84c-.23.29-.54.53-.92.7s-.78.25-1.2.25c-.56,0-1.07-.12-1.51-.35-.45-.23-.8-.58-1.05-1.04-.26-.46-.38-1.01-.38-1.66v-4.21h1.47v3.99c0,.64.16,1.13.48,1.48.32.34.76.51,1.31.51s.99-.17,1.32-.51c.32-.34.49-.83.49-1.48v-3.99h1.48Z"/><path class="cls-1" d="M58.34,114.96c.36-.2.79-.31,1.28-.31v1.53h-.38c-.58,0-1.02.15-1.32.44-.3.29-.45.81-.45,1.53v3.77h-1.48v-7.16h1.48v1.04c.22-.36.5-.65.86-.85Z"/><path class="cls-1" d="M70.25,121.94l-3.5-4.04v4.04h-1.48v-9.04h1.48v4.12l3.51-4.12h1.86l-3.93,4.52,3.99,4.51h-1.94Z"/><path class="cls-1" d="M79.09,115.01c.45.23.79.58,1.05,1.04.25.46.38,1.01.38,1.66v4.22h-1.47v-4c0-.64-.16-1.13-.48-1.48-.32-.34-.76-.51-1.31-.51s-.99.17-1.32.51c-.32.34-.49.83-.49,1.48v4h-1.48v-7.16h1.48v.82c.24-.29.55-.52.93-.69.38-.16.78-.25,1.2-.25.56,0,1.07.12,1.51.35Z"/><path class="cls-1" d="M84.13,121.59c-.55-.31-.98-.74-1.29-1.3s-.47-1.21-.47-1.94.16-1.37.48-1.94c.32-.56.76-1,1.31-1.3.55-.3,1.17-.46,1.86-.46s1.3.15,1.86.46c.55.3.99.74,1.31,1.3.32.56.48,1.21.48,1.94s-.16,1.37-.49,1.94c-.33.56-.78,1-1.35,1.31-.57.31-1.19.46-1.88.46s-1.29-.15-1.83-.46ZM87.03,120.49c.33-.18.6-.46.81-.82.21-.36.31-.81.31-1.33s-.1-.96-.3-1.32-.46-.63-.79-.81c-.33-.18-.68-.27-1.07-.27s-.73.09-1.06.27c-.33.18-.58.45-.77.81-.19.36-.29.8-.29,1.32,0,.77.2,1.37.59,1.79.39.42.89.63,1.49.63.38,0,.74-.09,1.07-.27Z"/><path class="cls-1" d="M101.22,114.78l-2.22,7.16h-1.56l-1.44-5.29-1.44,5.29h-1.56l-2.24-7.16h1.51l1.49,5.76,1.52-5.76h1.55l1.46,5.73,1.48-5.73h1.46Z"/><path class="cls-1" d="M104.26,112.32v9.62h-1.48v-9.62h1.48Z"/><path class="cls-1" d="M113.18,118.91h-5.47c.04.57.26,1.03.64,1.38.38.35.85.52,1.4.52.8,0,1.36-.33,1.69-1h1.6c-.22.66-.61,1.2-1.18,1.62-.57.42-1.27.63-2.11.63-.69,0-1.3-.15-1.84-.46s-.97-.74-1.27-1.3-.46-1.21-.46-1.94.15-1.38.45-1.94c.3-.56.72-.99,1.26-1.29.54-.3,1.16-.46,1.87-.46s1.28.15,1.81.44c.53.29.94.71,1.24,1.24.29.53.44,1.15.44,1.84,0,.27-.02.51-.05.73ZM111.69,117.71c0-.55-.2-.98-.58-1.31-.38-.33-.85-.49-1.42-.49-.51,0-.95.16-1.31.49-.36.33-.58.77-.65,1.32h3.97Z"/><path class="cls-1" d="M115.1,116.41c.3-.55.71-.99,1.22-1.29s1.09-.46,1.72-.46c.47,0,.93.1,1.38.31.46.2.82.47,1.09.81v-3.46h1.49v9.62h-1.49v-1.08c-.24.35-.58.63-1.01.86-.43.22-.92.34-1.48.34-.62,0-1.19-.16-1.71-.47s-.92-.76-1.22-1.33c-.3-.57-.45-1.21-.45-1.93s.15-1.36.45-1.91ZM120.21,117.06c-.2-.36-.47-.64-.8-.83-.33-.19-.68-.29-1.07-.29s-.74.09-1.07.28c-.33.19-.6.46-.8.82s-.31.79-.31,1.28.1.93.31,1.3c.2.37.47.66.81.85.33.2.69.29,1.06.29s.74-.1,1.07-.29c.33-.19.6-.47.8-.84.2-.37.31-.8.31-1.29s-.1-.92-.31-1.29Z"/><path class="cls-1" d="M128.77,114.99c.43.22.76.5,1.01.83v-1.04h1.49v7.28c0,.66-.14,1.25-.42,1.76-.28.51-.68.92-1.2,1.21-.52.29-1.15.44-1.88.44-.97,0-1.78-.23-2.42-.68-.64-.46-1.01-1.07-1.09-1.85h1.47c.11.37.35.67.72.9.37.23.81.34,1.32.34.6,0,1.08-.18,1.45-.55.37-.36.55-.89.55-1.59v-1.2c-.25.34-.59.62-1.02.85-.43.23-.92.34-1.46.34-.62,0-1.19-.16-1.71-.47s-.92-.76-1.22-1.33c-.3-.57-.45-1.21-.45-1.93s.15-1.36.45-1.91c.3-.55.71-.99,1.22-1.29s1.09-.46,1.71-.46c.55,0,1.05.11,1.48.33ZM129.48,117.06c-.2-.36-.47-.64-.8-.83-.33-.19-.68-.29-1.07-.29s-.74.09-1.07.28c-.33.19-.6.46-.8.82s-.31.79-.31,1.28.1.93.31,1.3c.2.37.47.66.81.85.33.2.69.29,1.06.29s.74-.1,1.07-.29c.33-.19.6-.47.8-.84.2-.37.31-.8.31-1.29s-.1-.92-.31-1.29Z"/><path class="cls-1" d="M140.19,118.91h-5.47c.04.57.26,1.03.64,1.38.38.35.85.52,1.4.52.8,0,1.36-.33,1.69-1h1.6c-.22.66-.61,1.2-1.18,1.62-.57.42-1.27.63-2.11.63-.69,0-1.3-.15-1.84-.46s-.97-.74-1.27-1.3-.46-1.21-.46-1.94.15-1.38.45-1.94c.3-.56.72-.99,1.26-1.29.54-.3,1.16-.46,1.87-.46s1.28.15,1.81.44c.53.29.94.71,1.24,1.24.29.53.44,1.15.44,1.84,0,.27-.02.51-.05.73ZM138.7,117.71c0-.55-.2-.98-.58-1.31-.38-.33-.85-.49-1.42-.49-.51,0-.95.16-1.31.49-.36.33-.58.77-.65,1.32h3.97Z"/><path class="cls-1" d="M142.08,121.76c-.18-.18-.27-.41-.27-.68s.09-.49.27-.68.41-.27.68-.27.48.09.66.27c.18.18.27.41.27.68s-.09.49-.27.68c-.18.18-.4.27-.66.27s-.49-.09-.68-.27Z"/><path class="cls-1" d="M145.67,121.76c-.18-.18-.27-.41-.27-.68s.09-.49.27-.68.41-.27.68-.27.48.09.66.27c.18.18.27.41.27.68s-.09.49-.27.68c-.18.18-.4.27-.66.27s-.49-.09-.68-.27Z"/><path class="cls-1" d="M149.26,121.76c-.18-.18-.27-.41-.27-.68s.09-.49.27-.68.41-.27.68-.27.48.09.66.27c.18.18.27.41.27.68s-.09.49-.27.68c-.18.18-.4.27-.66.27s-.49-.09-.68-.27Z"/><path class="cls-1" d="M158.56,121.44c-.71-.39-1.27-.94-1.68-1.65-.41-.71-.62-1.5-.62-2.39s.21-1.68.62-2.38c.41-.7.97-1.25,1.68-1.64s1.48-.59,2.32-.59,1.63.2,2.33.59c.71.39,1.26.94,1.67,1.64s.61,1.5.61,2.38-.2,1.68-.61,2.39-.96,1.26-1.67,1.65c-.71.39-1.48.59-2.33.59s-1.61-.2-2.32-.59ZM162.48,120.33c.47-.27.83-.66,1.1-1.17.26-.51.4-1.09.4-1.76s-.13-1.25-.4-1.75c-.26-.5-.63-.89-1.1-1.16-.47-.27-1-.4-1.6-.4s-1.13.13-1.6.4-.83.65-1.1,1.16-.4,1.09-.4,1.75.13,1.25.4,1.76.63.9,1.1,1.17,1,.41,1.6.41,1.13-.14,1.6-.41Z"/><path class="cls-1" d="M173.89,114.78v7.16h-1.48v-.84c-.23.29-.54.53-.92.7s-.78.25-1.2.25c-.56,0-1.07-.12-1.51-.35s-.8-.58-1.05-1.04c-.26-.46-.38-1.01-.38-1.66v-4.21h1.47v3.99c0,.64.16,1.13.48,1.48.32.34.76.51,1.31.51s1-.17,1.32-.51c.33-.34.49-.83.49-1.48v-3.99h1.48Z"/><path class="cls-1" d="M178.64,114.96c.36-.2.79-.31,1.28-.31v1.53h-.38c-.58,0-1.02.15-1.32.44s-.45.81-.45,1.53v3.77h-1.48v-7.16h1.48v1.04c.22-.36.5-.65.86-.85Z"/><path class="cls-1" d="M186.92,121.71c-.49-.21-.87-.51-1.14-.9-.28-.39-.42-.84-.42-1.37h1.59c.04.39.19.71.46.96.27.25.66.38,1.15.38s.91-.12,1.2-.37c.29-.25.43-.57.43-.96,0-.3-.09-.55-.27-.74s-.4-.34-.66-.44c-.26-.1-.63-.22-1.1-.34-.59-.16-1.07-.31-1.44-.47s-.68-.41-.94-.75c-.26-.34-.39-.79-.39-1.35,0-.52.13-.97.39-1.37.26-.39.62-.69,1.09-.9.47-.21,1.01-.31,1.62-.31.88,0,1.59.22,2.15.66.56.44.87,1.04.93,1.8h-1.64c-.03-.33-.18-.61-.47-.84s-.66-.35-1.13-.35c-.42,0-.77.11-1.04.32-.27.22-.4.53-.4.94,0,.28.08.5.25.68.17.18.38.32.64.42.26.1.62.22,1.07.34.6.16,1.09.33,1.46.49.38.17.7.42.96.76.26.34.4.8.4,1.37,0,.46-.12.89-.37,1.3s-.61.73-1.08.98c-.47.25-1.03.37-1.67.37-.61,0-1.15-.11-1.64-.32Z"/><path class="cls-1" d="M195.16,121.59c-.55-.31-.97-.74-1.29-1.3-.31-.56-.47-1.21-.47-1.94s.16-1.37.48-1.94c.32-.56.76-1,1.31-1.3.55-.3,1.17-.46,1.86-.46s1.3.15,1.86.46c.55.3.99.74,1.31,1.3.32.56.48,1.21.48,1.94s-.16,1.37-.49,1.94c-.33.56-.78,1-1.34,1.31-.57.31-1.19.46-1.88.46s-1.29-.15-1.83-.46ZM198.06,120.49c.33-.18.6-.46.81-.82.21-.36.31-.81.31-1.33s-.1-.96-.3-1.32c-.2-.36-.46-.63-.79-.81-.33-.18-.68-.27-1.07-.27s-.73.09-1.06.27c-.33.18-.58.45-.77.81s-.29.8-.29,1.32c0,.77.2,1.37.59,1.79.39.42.89.63,1.49.63.38,0,.74-.09,1.07-.27Z"/><path class="cls-1" d="M204.11,112.32v9.62h-1.48v-9.62h1.48Z"/><path class="cls-1" d="M213.01,114.78v7.16h-1.48v-.84c-.23.29-.54.53-.92.7s-.78.25-1.2.25c-.56,0-1.07-.12-1.51-.35s-.8-.58-1.05-1.04c-.26-.46-.38-1.01-.38-1.66v-4.21h1.47v3.99c0,.64.16,1.13.48,1.48.32.34.76.51,1.31.51s1-.17,1.32-.51c.33-.34.49-.83.49-1.48v-3.99h1.48Z"/><path class="cls-1" d="M217.14,115.98v3.96c0,.27.06.46.19.58.12.12.34.17.64.17h.91v1.24h-1.17c-.67,0-1.18-.16-1.53-.47-.36-.31-.53-.82-.53-1.52v-3.96h-.84v-1.21h.84v-1.78h1.5v1.78h1.74v1.21h-1.74Z"/><path class="cls-1" d="M220.78,113.55c-.18-.18-.27-.41-.27-.68s.09-.49.27-.68c.18-.18.41-.27.68-.27s.48.09.66.27.27.41.27.68-.09.49-.27.68-.4.27-.66.27-.49-.09-.68-.27ZM222.18,114.78v7.16h-1.48v-7.16h1.48Z"/><path class="cls-1" d="M225.86,121.59c-.55-.31-.97-.74-1.29-1.3-.31-.56-.47-1.21-.47-1.94s.16-1.37.48-1.94c.32-.56.76-1,1.31-1.3.55-.3,1.17-.46,1.86-.46s1.3.15,1.86.46c.55.3.99.74,1.31,1.3.32.56.48,1.21.48,1.94s-.16,1.37-.49,1.94c-.33.56-.78,1-1.34,1.31-.57.31-1.19.46-1.88.46s-1.29-.15-1.83-.46ZM228.77,120.49c.33-.18.6-.46.81-.82.21-.36.31-.81.31-1.33s-.1-.96-.3-1.32c-.2-.36-.46-.63-.79-.81-.33-.18-.68-.27-1.07-.27s-.73.09-1.06.27c-.33.18-.58.45-.77.81s-.29.8-.29,1.32c0,.77.2,1.37.59,1.79.39.42.89.63,1.49.63.38,0,.74-.09,1.07-.27Z"/><path class="cls-1" d="M238.47,115.01c.45.23.79.58,1.05,1.04.25.46.38,1.01.38,1.66v4.22h-1.47v-4c0-.64-.16-1.13-.48-1.48-.32-.34-.76-.51-1.31-.51s-.99.17-1.32.51c-.33.34-.49.83-.49,1.48v4h-1.48v-7.16h1.48v.82c.24-.29.55-.52.93-.69.38-.16.78-.25,1.2-.25.56,0,1.07.12,1.51.35Z"/><path class="cls-1" d="M242.15,121.76c-.18-.18-.27-.41-.27-.68s.09-.49.27-.68.41-.27.68-.27.48.09.66.27c.18.18.27.41.27.68s-.09.49-.27.68c-.18.18-.4.27-.66.27s-.49-.09-.68-.27Z"/><path class="cls-1" d="M245.74,121.76c-.18-.18-.27-.41-.27-.68s.09-.49.27-.68.41-.27.68-.27.48.09.66.27c.18.18.27.41.27.68s-.09.49-.27.68c-.18.18-.4.27-.66.27s-.49-.09-.68-.27Z"/><path class="cls-1" d="M249.33,121.76c-.18-.18-.27-.41-.27-.68s.09-.49.27-.68.41-.27.68-.27.48.09.66.27c.18.18.27.41.27.68s-.09.49-.27.68c-.18.18-.4.27-.66.27s-.49-.09-.68-.27Z"/><path class="cls-1" d="M253.44,121.76c-.18-.18-.27-.41-.27-.68s.09-.49.27-.68c.18-.18.41-.27.68-.27s.48.09.66.27.27.41.27.68-.09.49-.27.68-.4.27-.66.27-.49-.09-.68-.27ZM254.85,112.9l-.17,6.3h-1.24l-.17-6.3h1.57Z"/></svg>