<svg id="Layer_1" data-name="Layer 1" xmlns="http://www.w3.org/2000/svg" viewBox="0 0 325.93 112.79"><defs><style>.cls-1{fill:none;}.cls-2,.cls-3{fill:#ed1c25;}.cls-3,.cls-4{fill-rule:evenodd;}.cls-4,.cls-5{fill:#66686a;}</style></defs><rect class="cls-1" x="-3051.35" y="-2258.92" width="5040" height="3960"/><path class="cls-2" d="M36.89,49a16.35,16.35,0,0,1-8.47-2.26,17.09,17.09,0,0,1-6.09-6.09,16.45,16.45,0,0,1-2.26-8.47,16.39,16.39,0,0,1,2.26-8.49,17.25,17.25,0,0,1,6.09-6.09,16.27,16.27,0,0,1,8.47-2.28H74V26.53H36.89a5.35,5.35,0,0,0-4,1.65,5.65,5.65,0,0,0,0,7.94,5.35,5.35,0,0,0,4,1.65H59.37A16.29,16.29,0,0,1,67.85,40a17.25,17.25,0,0,1,6.09,6.09,16.89,16.89,0,0,1,0,17,17.36,17.36,0,0,1-6.09,6.1,16.2,16.2,0,0,1-8.48,2.27H22.31V60.21H59.37a5.46,5.46,0,0,0,4-1.63,5.63,5.63,0,0,0-4-9.61Z"/><polygon class="cls-2" points="264.3 45.82 264.3 72.43 251.09 72.43 251.09 14.31 264.3 14.31 264.3 42.21 292.55 14.31 311.06 14.31 281.15 43.98 311.13 72.43 290.27 72.43 264.3 45.82"/><path class="cls-2" d="M18.16,79.92l12.67-.33,14.54-.3L64.24,79l22.31-.29,24.91-.22,26.64-.14,27.5-.06,27.5.06,26.64.14,24.91.22L267,79l18.86.32,14.54.3,12.68.33-12.68.33-14.54.3L267,80.87l-22.32.28-24.91.22-26.64.14-27.5.06-27.5-.06-26.64-.14-24.91-.22-22.31-.29-18.87-.31-14.54-.3-12.67-.33"/><path class="cls-3" d="M93.61,25.68h27.17a6.6,6.6,0,1,1,0,13.2H93.61ZM80.43,14.44h40.32a17.23,17.23,0,0,1,9,2.4,18.2,18.2,0,0,1,6.46,6.44,17.15,17.15,0,0,1,2.42,9,17.09,17.09,0,0,1-2.42,9,18.12,18.12,0,0,1-6.46,6.44,17.23,17.23,0,0,1-9,2.4H93.64V72.56H80.43Z"/><path class="cls-3" d="M156.38,28.54l8.41,21.65H147.93Zm6.28-14.23,23.23,58.12H171.43l-4.36-11.24H145.69l-4.36,11.24h-14.5l23.26-58.12Z"/><path class="cls-3" d="M202.37,25.55h27.44a5.86,5.86,0,0,1,4.39,1.92,6.85,6.85,0,0,1,0,9.34,5.85,5.85,0,0,1-4.39,1.94H202.37Zm36-8.84a18.2,18.2,0,0,1,6.46,6.44,17.85,17.85,0,0,1,1.2,15.46,16.31,16.31,0,0,1-2.75,4.78,16.38,16.38,0,0,1,2.75,4.75,17.17,17.17,0,0,1,1.22,6.45V72.43H234.07V54.59A4.66,4.66,0,0,0,229.44,50H202.32V72.43h-13.2V14.31h40.32A17.26,17.26,0,0,1,238.4,16.71Z"/><path class="cls-4" d="M26.67,96.66a3.33,3.33,0,0,1,0,4.49,2.82,2.82,0,0,1-2.07.93,2.71,2.71,0,0,1-2-.88,4.25,4.25,0,0,1-.93-2.53l-1.85.7a5.26,5.26,0,0,0,1.35,2.94,4.61,4.61,0,0,0,3.45,1.49A4.68,4.68,0,0,0,28,102.35a4.9,4.9,0,0,0,1.39-3.45A4.79,4.79,0,0,0,28,95.47,7.4,7.4,0,0,0,25,93.57a4.81,4.81,0,0,1-1.5-1,2,2,0,0,1-.54-1.37,1.88,1.88,0,0,1,.52-1.38,1.65,1.65,0,0,1,1.17-.52,1.61,1.61,0,0,1,1.2.54A4,4,0,0,1,26.36,91l1.72-.67a4.11,4.11,0,0,0-.87-1.63,3.53,3.53,0,0,0-2.61-1.1A3.37,3.37,0,0,0,22,88.65a3.6,3.6,0,0,0-.05,5,6.53,6.53,0,0,0,2.66,1.58,6.65,6.65,0,0,1,2,1.4"/><path class="cls-4" d="M42.6,102.06a5.68,5.68,0,0,1-4.22-1.85,6.2,6.2,0,0,1-1.78-4.54,6.28,6.28,0,0,1,1.78-4.52,5.69,5.69,0,0,1,4.22-1.82,6.42,6.42,0,0,1,4.34,1.91L48.27,90a8.11,8.11,0,0,0-5.67-2.43A7.49,7.49,0,0,0,37,90a8.21,8.21,0,0,0,0,11.42,7.44,7.44,0,0,0,5.63,2.4,8.12,8.12,0,0,0,5.67-2.44l-1.33-1.24a6.47,6.47,0,0,1-4.34,1.94"/><rect class="cls-5" x="54.11" y="87.75" width="1.91" height="15.87"/><polygon class="cls-4" points="62.38 87.75 62.38 103.61 70.68 103.61 70.68 101.88 64.29 101.88 64.29 96.55 70.68 96.55 70.68 94.81 64.29 94.81 64.29 89.48 70.68 89.48 70.68 87.75 62.38 87.75"/><polygon class="cls-4" points="76.9 87.75 76.9 103.61 78.83 103.61 78.83 91.27 87.31 103.61 89.42 103.61 89.42 87.75 87.5 87.75 87.5 100.43 78.81 87.75 76.9 87.75"/><polygon class="cls-4" points="104 89.48 104 87.75 94.81 87.75 94.81 89.48 98.46 89.48 98.46 103.61 100.35 103.61 100.35 89.48 104 89.48"/><rect class="cls-5" x="109.52" y="87.75" width="1.91" height="15.87"/><polygon class="cls-4" points="117.78 87.75 117.78 103.61 119.7 103.61 119.7 96.55 125.2 96.55 125.2 94.81 119.7 94.81 119.7 89.48 125.2 89.48 125.2 87.75 117.78 87.75"/><rect class="cls-5" x="130.91" y="87.75" width="1.91" height="15.87"/><path class="cls-4" d="M146.71,102.06a5.69,5.69,0,0,1-4.22-1.85,6.24,6.24,0,0,1-1.78-4.54,6.32,6.32,0,0,1,1.78-4.52,5.7,5.7,0,0,1,4.22-1.82,6.45,6.45,0,0,1,4.35,1.91L152.38,90a8.09,8.09,0,0,0-5.67-2.43A7.49,7.49,0,0,0,141.08,90a8.24,8.24,0,0,0,0,11.42,7.44,7.44,0,0,0,5.63,2.4,8.1,8.1,0,0,0,5.67-2.44l-1.32-1.24a6.49,6.49,0,0,1-4.35,1.94Z"/><path class="cls-4" d="M171.18,89.51a3.14,3.14,0,0,1,2.32,1,3.79,3.79,0,0,1,0,5.13,3.05,3.05,0,0,1-2.32,1h-1.89V89.51Zm0,8.91a5,5,0,0,0,3.74-1.58,5.33,5.33,0,0,0,1.52-3.77,5.14,5.14,0,0,0-1.5-3.7,5.39,5.39,0,0,0-3.2-1.62h-4.36v15.87h1.91v-5.2Z"/><path class="cls-4" d="M189.13,103.62h2.22l-3.44-5.51a4.14,4.14,0,0,0,1.81-1.27,5.27,5.27,0,0,0,1.54-3.77,5.14,5.14,0,0,0-1.5-3.7,5.36,5.36,0,0,0-3.2-1.62H182.2v15.87h1.91v-5.2h1.8ZM186,89.51a3.18,3.18,0,0,1,2.33,1,3.82,3.82,0,0,1,0,5.13,3.09,3.09,0,0,1-2.33,1h-1.89V89.51Z"/><rect class="cls-5" x="197.21" y="87.75" width="1.91" height="15.87"/><polygon class="cls-4" points="210.44 99.96 206.29 87.75 204.29 87.75 209.76 103.61 211.09 103.61 216.59 87.75 214.59 87.75 210.44 99.96"/><path class="cls-4" d="M224.91,87.75l-5.58,15.87h2l2.35-6.6h4.15l2.3,6.6h2l-5.52-15.87Zm-.63,7.56,1.46-4.22,1.48,4.22Z"/><polygon class="cls-4" points="244.78 89.48 244.78 87.75 235.59 87.75 235.59 89.48 239.24 89.48 239.24 103.61 241.13 103.61 241.13 89.48 244.78 89.48"/><polygon class="cls-4" points="250.19 87.75 250.19 103.61 258.49 103.61 258.49 101.88 252.1 101.88 252.1 96.55 258.49 96.55 258.49 94.81 252.1 94.81 252.1 89.48 258.49 89.48 258.49 87.75 250.19 87.75"/><polygon class="cls-4" points="281.42 103.61 281.42 101.88 275.92 101.88 275.92 87.75 274.01 87.75 274.01 103.61 281.42 103.61"/><polygon class="cls-4" points="294.49 89.48 294.49 87.75 285.3 87.75 285.3 89.48 288.95 89.48 288.95 103.61 290.84 103.61 290.84 89.48 294.49 89.48"/><path class="cls-4" d="M303.11,89.51a6,6,0,0,1,4.46,1.62,6.65,6.65,0,0,1,0,9.1,6,6,0,0,1-4.46,1.62h-1.3V89.51Zm-3.21-1.76v15.87h3.21a7.95,7.95,0,1,0,0-15.87Z"/></svg>